<svg xmlns="http://www.w3.org/2000/svg" viewBox="0 0 80 70"><title>Frozen peas</title><ellipse cx="40" cy="65" rx="24" ry="3" fill="#6b7159" opacity=".12"/><g stroke-linejoin="round" stroke-linecap="round"><path d="m21 9 38 0-3 11 6 38-5 5H23l-5-5 6-38Z" fill="#94aa93" stroke="#a09275"/><path d="m24 17 32 0m-33 39 34 0" stroke="#e7f0e8" stroke-width="2"/><path d="M27 23h26l4 28H23Z" fill="#e7f0e8"/><path d="m22 58 3 3 3-3 3 3 3-3 3 3 3-3 3 3 3-3 3 3 3-3 3 3" fill="none" stroke="#ffffff55"/><path d="m22 10 3 3 3-3 3 3 3-3 3 3 3-3 3 3 3-3 3 3 3-3 3 3 3-3" fill="none" stroke="#ffffff55"/><path d="M27 44q12-21 28-9-12 20-28 9Z" fill="#809460"/><circle cx="34" cy="41" r="3" fill="#b7bd7b"/><circle cx="41" cy="38" r="3" fill="#b7bd7b"/><circle cx="48" cy="37" r="3" fill="#b7bd7b"/><g stroke="#f7faf2" stroke-width="1.2" stroke-linecap="round"><path d="M58 13v10m-4-7 8 4m-8 0 8-4"/></g></g></svg>
