<svg xmlns="http://www.w3.org/2000/svg" viewBox="0 0 80 70"><title>Frozen dumplings</title><ellipse cx="40" cy="65" rx="24" ry="3" fill="#6b7159" opacity=".12"/><g stroke-linejoin="round" stroke-linecap="round"><path d="m21 9 38 0-3 11 6 38-5 5H23l-5-5 6-38Z" fill="#9baca6" stroke="#a09275"/><path d="m24 17 32 0m-33 39 34 0" stroke="#f0e8d5" stroke-width="2"/><path d="M27 23h26l4 28H23Z" fill="#f0e8d5"/><path d="m22 58 3 3 3-3 3 3 3-3 3 3 3-3 3 3 3-3 3 3 3-3 3 3" fill="none" stroke="#ffffff55"/><path d="m22 10 3 3 3-3 3 3 3-3 3 3 3-3 3 3 3-3 3 3 3-3 3 3 3-3" fill="none" stroke="#ffffff55"/><path d="M25 46q15-26 30 0-13 9-30 0Z" fill="#eee1c4" stroke="#b5a588"/><path d="m30 40 5 6m0-11 5 9m2-11 3 11m3-8 1 9" stroke="#bcaf91" fill="none"/><g stroke="#f7faf2" stroke-width="1.2" stroke-linecap="round"><path d="M58 13v10m-4-7 8 4m-8 0 8-4"/></g></g></svg>
