<svg xmlns="http://www.w3.org/2000/svg" viewBox="0 0 100 100"><ellipse cx="50" cy="87" rx="28" ry="4" fill="#6c513c" opacity=".12"/><path d="M50 29Q45 16 53 10" fill="none" stroke="#725638" stroke-width="5" stroke-linecap="round"/><path d="M53 22Q58 6 77 14Q70 29 53 22" fill="#7f965f"/><path d="M50 32C21 14 9 40 20 64C30 89 42 87 50 81C61 89 73 84 82 62C93 37 77 14 50 32" fill="#b96048"/><path d="M49 35C31 23 22 37 24 52" fill="none" stroke="#dfa18a" stroke-width="6" stroke-linecap="round"/><path d="M58 75Q72 66 76 48" fill="none" stroke="#a4503c" stroke-width="3" stroke-linecap="round"/></svg>
